<svg xmlns="http://www.w3.org/2000/svg"  viewBox="0 0 80 80" width="40px" height="40px"><path fill="#f78f8f" d="M40,77.5C19.322,77.5,2.5,60.678,2.5,40S19.322,2.5,40,2.5S77.5,19.322,77.5,40S60.678,77.5,40,77.5 z"/><path fill="#c74343" d="M40,3c20.402,0,37,16.598,37,37S60.402,77,40,77S3,60.402,3,40S19.598,3,40,3 M40,2 C19.013,2,2,19.013,2,40s17.013,38,38,38s38-17.013,38-38S60.987,2,40,2L40,2z"/><g><path fill="#fff" d="M39.763,18C24.197,18,15.93,28.449,15.93,39.828c0,5.29,2.816,11.877,7.322,13.974 c0.683,0.318,1.049,0.178,1.207-0.482c0.119-0.501,0.728-2.952,1.001-4.091c0.088-0.364,0.045-0.677-0.25-1.034 c-1.49-1.807-2.684-5.131-2.684-8.232c0-7.955,6.024-15.654,16.287-15.654c8.861,0,15.067,6.038,15.067,14.675 c0,9.758-4.928,16.518-11.339,16.518c-3.541,0-6.191-2.928-5.342-6.519c1.017-4.287,2.988-8.915,2.988-12.009 c0-2.77-1.487-5.081-4.564-5.081c-3.62,0-6.527,3.744-6.527,8.76c0,3.194,1.079,5.355,1.079,5.355s-3.575,15.115-4.23,17.93 c-0.716,3.078-0.447,7.381-0.136,10.236c0.823,0.337,1.662,0.643,2.514,0.92c1.47-2.401,3.637-6.285,4.445-9.392 c0.438-1.687,2.247-8.575,2.247-8.575c1.176,2.243,4.612,4.142,8.267,4.142C54.162,61.269,62,51.264,62,38.833 C62,26.916,52.276,18,39.763,18z"/></g></svg>